<svg xmlns="http://www.w3.org/2000/svg" xmlns:oryx="http://oryx-editor.org" id="_B3D56A39-F62D-495B-B822-F198D525F7EC" width="698" height="265" xmlns:xlink="http://www.w3.org/1999/xlink" xmlns:svg="http://www.w3.org/2000/svg"><defs><marker id="_5251EDE2-9A58-4615-B3CC-93794CFEC6ABstart" refX="1" refY="5" markerUnits="userSpaceOnUse" markerWidth="17" markerHeight="11" orient="auto" fill="#000000" stroke="#000000"> 	  		<path id="_5251EDE2-9A58-4615-B3CC-93794CFEC6ABconditional" d="M 0 5 L 8 0 L 16 5 L 8 10 L 0 5" fill="white" stroke="#000000" stroke-width="1" display="none"/> 			<path id="_5251EDE2-9A58-4615-B3CC-93794CFEC6ABdefault" d="M 5 0 L 11 10" fill="white" stroke="#000000" stroke-width="1" display="none"/> 	  	</marker><marker id="_5251EDE2-9A58-4615-B3CC-93794CFEC6ABend" refX="15" refY="6" markerUnits="userSpaceOnUse" markerWidth="15" markerHeight="12" orient="auto" fill="#000000" stroke="#000000"> 	  		<path id="_5251EDE2-9A58-4615-B3CC-93794CFEC6ABframe2" d="M 0 1 L 15 6 L 0 11z" fill="#000000" stroke="#000000" stroke-linejoin="round" stroke-width="2"/> 	  	</marker><marker id="_6C2CBF08-EB8F-422D-9A3D-04DA233C19FAstart" refX="1" refY="5" markerUnits="userSpaceOnUse" markerWidth="17" markerHeight="11" orient="auto" fill="#000000" stroke="#000000"> 	  		<path id="_6C2CBF08-EB8F-422D-9A3D-04DA233C19FAconditional" d="M 0 5 L 8 0 L 16 5 L 8 10 L 0 5" fill="white" stroke="#000000" stroke-width="1" display="none"/> 			<path id="_6C2CBF08-EB8F-422D-9A3D-04DA233C19FAdefault" d="M 5 0 L 11 10" fill="white" stroke="#000000" stroke-width="1" display="none"/> 	  	</marker><marker id="_6C2CBF08-EB8F-422D-9A3D-04DA233C19FAend" refX="15" refY="6" markerUnits="userSpaceOnUse" markerWidth="15" markerHeight="12" orient="auto" fill="#000000" stroke="#000000"> 	  		<path id="_6C2CBF08-EB8F-422D-9A3D-04DA233C19FAframe2" d="M 0 1 L 15 6 L 0 11z" fill="#000000" stroke="#000000" stroke-linejoin="round" stroke-width="2"/> 	  	</marker><marker id="_06E51988-021B-4C39-AAD1-E9B4E5380334start" refX="1" refY="5" markerUnits="userSpaceOnUse" markerWidth="17" markerHeight="11" orient="auto" fill="#000000" stroke="#000000"> 	  		<path id="_06E51988-021B-4C39-AAD1-E9B4E5380334conditional" d="M 0 5 L 8 0 L 16 5 L 8 10 L 0 5" fill="white" stroke="#000000" stroke-width="1" display="none"/> 			<path id="_06E51988-021B-4C39-AAD1-E9B4E5380334default" d="M 5 0 L 11 10" fill="white" stroke="#000000" stroke-width="1" display="none"/> 	  	</marker><marker id="_06E51988-021B-4C39-AAD1-E9B4E5380334end" refX="15" refY="6" markerUnits="userSpaceOnUse" markerWidth="15" markerHeight="12" orient="auto" fill="#000000" stroke="#000000"> 	  		<path id="_06E51988-021B-4C39-AAD1-E9B4E5380334frame2" d="M 0 1 L 15 6 L 0 11z" fill="#000000" stroke="#000000" stroke-linejoin="round" stroke-width="2"/> 	  	</marker><marker id="_9BF2F472-C882-4EA7-B26B-8C8BB3648FDAstart" refX="1" refY="5" markerUnits="userSpaceOnUse" markerWidth="17" markerHeight="11" orient="auto" fill="#000000" stroke="#000000"> 	  		<path id="_9BF2F472-C882-4EA7-B26B-8C8BB3648FDAconditional" d="M 0 5 L 8 0 L 16 5 L 8 10 L 0 5" fill="white" stroke="#000000" stroke-width="1" display="none"/> 			<path id="_9BF2F472-C882-4EA7-B26B-8C8BB3648FDAdefault" d="M 5 0 L 11 10" fill="white" stroke="#000000" stroke-width="1" display="none"/> 	  	</marker><marker id="_9BF2F472-C882-4EA7-B26B-8C8BB3648FDAend" refX="15" refY="6" markerUnits="userSpaceOnUse" markerWidth="15" markerHeight="12" orient="auto" fill="#000000" stroke="#000000"> 	  		<path id="_9BF2F472-C882-4EA7-B26B-8C8BB3648FDAframe2" d="M 0 1 L 15 6 L 0 11z" fill="#000000" stroke="#000000" stroke-linejoin="round" stroke-width="2"/> 	  	</marker></defs><g stroke="none" font-family="Verdana, sans-serif" font-size-adjust="none" font-style="normal" font-variant="normal" font-weight="normal" line-heigth="normal" font-size="12"><g class="stencils" transform="translate(15, 16)"><g class="me"/><g class="children"><g id="_AB09853F-E21A-4974-992F-B931FAA5FB2C" bpmn2nodeid="processStartEvent"><g class="stencils" transform="translate(120, 165)"><g class="me"><g pointer-events="fill" id="_AB09853F-E21A-4974-992F-B931FAA5FB2C">        <defs id="_AB09853F-E21A-4974-992F-B931FAA5FB2C__AB09853F-E21A-4974-992F-B931FAA5FB2C_5"> 		<radialGradient id="_AB09853F-E21A-4974-992F-B931FAA5FB2Cbackground" cx="10%" cy="10%" r="100%" fx="10%" fy="10%"> 			<stop offset="0%" stop-color="#ffffff" stop-opacity="1" id="_AB09853F-E21A-4974-992F-B931FAA5FB2C__AB09853F-E21A-4974-992F-B931FAA5FB2C_6"/> 			<stop id="_AB09853F-E21A-4974-992F-B931FAA5FB2Cfill_el" offset="100%" stop-color="#9acd32" stop-opacity="1"/> 		</radialGradient> 	</defs> 	     <circle id="_AB09853F-E21A-4974-992F-B931FAA5FB2Cbg_frame" cx="15" cy="15" r="15" stroke="#000000" fill="url(#_AB09853F-E21A-4974-992F-B931FAA5FB2Cbackground) white" stroke-width="1" style="stroke-dasharray: 5.5, 3"/>      <circle id="_AB09853F-E21A-4974-992F-B931FAA5FB2Cframe" cx="15" cy="15" r="15" stroke="#000000" fill="none" stroke-width="1" display="inherit"/>  	<text font-size="11" id="_AB09853F-E21A-4974-992F-B931FAA5FB2Ctext_name" x="15" y="32" oryx:align="top center" stroke="black" stroke-width="0pt" letter-spacing="-0.01px" fill="#000000" text-anchor="middle" transform="rotate(0 15 32)" visibility="inherit" oryx:fontSize="11"/>   </g></g><g class="children" style="overflow:hidden"/><g class="edge"/></g><g class="controls"><g class="dockers"/><g class="magnets" transform="translate(120, 165)"><g pointer-events="all" display="none" transform="translate(7, 7)"><circle cx="8" cy="8" r="4" stroke="none" fill="red" fill-opacity="0.3"/></g></g></g></g><g id="_4A489E55-FF5F-43B1-B65F-465F8A6C14AF" bpmn2nodeid="_6ECB50B4-48D6-48F4-B24E-497EEE79C68C"><g class="stencils" transform="translate(195, 140)"><g class="me"><g pointer-events="fill" oryx:minimumSize="50 40" id="_4A489E55-FF5F-43B1-B65F-465F8A6C14AF">   	<defs id="_4A489E55-FF5F-43B1-B65F-465F8A6C14AF__4A489E55-FF5F-43B1-B65F-465F8A6C14AF_17"> 		<radialGradient id="_4A489E55-FF5F-43B1-B65F-465F8A6C14AFbackground" cx="10%" cy="10%" r="100%" fx="10%" fy="10%"> 			<stop offset="0%" stop-color="#ffffff" stop-opacity="1" id="_4A489E55-FF5F-43B1-B65F-465F8A6C14AF__4A489E55-FF5F-43B1-B65F-465F8A6C14AF_18"/> 			<stop id="_4A489E55-FF5F-43B1-B65F-465F8A6C14AFfill_el" offset="100%" stop-color="#fafad2" stop-opacity="1"/> 		</radialGradient> 		<radialGradient id="_4A489E55-FF5F-43B1-B65F-465F8A6C14AFborderbackground" cx="10%" cy="10%" r="100%" fx="10%" fy="10%"> 			<stop offset="0%" stop-color="#ffffff" stop-opacity="1" id="_4A489E55-FF5F-43B1-B65F-465F8A6C14AF__4A489E55-FF5F-43B1-B65F-465F8A6C14AF_19"/> 			<stop id="_4A489E55-FF5F-43B1-B65F-465F8A6C14AFfill_border" offset="100%" stop-color="#000000" stop-opacity="1" stroke="#000000"/> 		</radialGradient> 	</defs> 	 	<rect id="_4A489E55-FF5F-43B1-B65F-465F8A6C14AFtext_frame" oryx:anchors="bottom top right left" x="1" y="1" width="94" height="79" rx="10" ry="10" stroke="none" stroke-width="0" fill="none"/> 	<rect id="_4A489E55-FF5F-43B1-B65F-465F8A6C14AFbg_frame" oryx:resize="vertical horizontal" x="0" y="0" width="100" height="80" rx="10" ry="10" stroke="#000000" stroke-width="1" fill="url(#_4A489E55-FF5F-43B1-B65F-465F8A6C14AFbackground) #ffffcc"/> 		<text font-size="12" id="_4A489E55-FF5F-43B1-B65F-465F8A6C14AFtext_name" x="50" y="40" oryx:align="middle center" oryx:fittoelem="text_frame" stroke="black" text-anchor="middle" stroke-width="0pt" letter-spacing="-0.01px" fill="#000000" transform="rotate(0 50 40)" visibility="inherit" oryx:fontSize="12"><tspan x="50" y="40" dy="5">Prepare objects</tspan></text>     <g id="_4A489E55-FF5F-43B1-B65F-465F8A6C14AFmanualTask" transform="scale(0.7,0.7) translate(8,8)" display="none">     	<path oryx:anchors="top left" id="_4A489E55-FF5F-43B1-B65F-465F8A6C14AFframe" style="opacity:1;fill:none;fill-opacity:1;stroke-width:1" d="M0.5,3.751l4.083-3.25c0,0,11.166,0.083,12.083,0.083s-2.417,2.917-1.5,2.917     s11.667,0,12.584,0c1.166,1.708-0.168,3.167-0.834,3.667s0.875,1.917-1,4.417c-0.75,0.25,0.75,1.875-1.333,3.333     c-1.167,0.583,0.583,1.542-1.25,2.833c-1.167,0-20.833,0.083-20.833,0.083l-2-1.333V3.751z" stroke="#000000"/> 		<path id="_4A489E55-FF5F-43B1-B65F-465F8A6C14AFframe2" oryx:anchors="top left" style="opacity:1;fill:none;stroke-width:2" d="M 13.5 7 L 27 7" stroke="#000000"/> 		<path id="_4A489E55-FF5F-43B1-B65F-465F8A6C14AFframe3" oryx:anchors="top left" style="opacity:1;fill:none;stroke-width:2" d="M 13.5 11 L 26 11" stroke="#000000"/> 		<path id="_4A489E55-FF5F-43B1-B65F-465F8A6C14AFframe4" oryx:anchors="top left" style="opacity:1;fill:none;stroke-width:1.5" d="M 14 14.5 L 25 14.5" stroke="#000000"/> 		<path id="_4A489E55-FF5F-43B1-B65F-465F8A6C14AFframe5" oryx:anchors="top left" style="opacity:1;fill:none;stroke-width:1.5" d="M 8.2 3.1 L 15 3.1" stroke="#000000"/> 	</g> 	 	<g id="_4A489E55-FF5F-43B1-B65F-465F8A6C14AFbusinessRuleTask" transform="scale(0.7,0.7) translate(8,8)" display="none"> 		<rect id="_4A489E55-FF5F-43B1-B65F-465F8A6C14AFframe6" oryx:anchors="top left" x="0" y="0" width="22" height="4" style="opacity:1;fill:#B3B1B3;fill-opacity:1;" stroke="#000000"/> 		<rect id="_4A489E55-FF5F-43B1-B65F-465F8A6C14AFframe7" oryx:anchors="top left" x="0" y="4" style="opacity:1;fill:none;" width="22" height="12" stroke="#000000"/> 		<path id="_4A489E55-FF5F-43B1-B65F-465F8A6C14AFframe8" oryx:anchors="top left" style="opacity:1;fill:none;" d="M 0 10 L 22 10" stroke="#000000"/> 		<path id="_4A489E55-FF5F-43B1-B65F-465F8A6C14AFframe9" oryx:anchors="top left" style="opacity:1; fill:none;" d="M 7 4 L 7 16" stroke="#000000"/> 	</g> 	 	<g id="_4A489E55-FF5F-43B1-B65F-465F8A6C14AFscriptTask" transform="scale(0.7,0.7) translate(8,8)" display="inherit"> 		<path oryx:anchors="top left" id="_4A489E55-FF5F-43B1-B65F-465F8A6C14AFframe10" style="opacity:1;fill:none;" stroke="#000000" d="M6.402,0.5h14.5c0,0-5.833,2.833-5.833,5.583s4.417,6,4.417,9.167    s-4.167,5.083-4.167,5.083H0.235c0,0,5-2.667,5-5s-4.583-6.75-4.583-9.25S6.402,0.5,6.402,0.5z"/> 		<path oryx:anchors="top left" id="_4A489E55-FF5F-43B1-B65F-465F8A6C14AFframe11" style="opacity:1;fill:none;stroke-width:1.5" d="M 3.5 4.5 L 13.5 4.5" stroke="#000000"/> 		<path oryx:anchors="top left" id="_4A489E55-FF5F-43B1-B65F-465F8A6C14AFframe12" style="opacity:1;fill:none;stroke-width:1.5" d="M 3.8 8.5 L 13.8 8.5" stroke="#000000"/> 		<path oryx:anchors="top left" id="_4A489E55-FF5F-43B1-B65F-465F8A6C14AFframe13" style="opacity:1;fill:none;stroke-width:1.5" d="M 6.3 12.5 L 16.3 12.5" stroke="#000000"/> 		<path oryx:anchors="top left" id="_4A489E55-FF5F-43B1-B65F-465F8A6C14AFframe14" style="opacity:1;fill:none;stroke-width:1.5" d="M 6.5 16.5 L 16.5 16.5" stroke="#000000"/> 	</g> 	 	<g id="_4A489E55-FF5F-43B1-B65F-465F8A6C14AFuserTask" transform="scale(0.7,0.7) translate(8,8)" display="none"> 		<path id="_4A489E55-FF5F-43B1-B65F-465F8A6C14AFframe15" oryx:anchors="top left" style="opacity:1;fill:#F4F6F7" stroke="#000000" d="M0.585,24.167h24.083v-7.833c0,0-2.333-3.917-7.083-5.167h-9.25    c-4.417,1.333-7.833,5.75-7.833,5.75L0.585,24.167z"/> 		<path id="_4A489E55-FF5F-43B1-B65F-465F8A6C14AFframe16" oryx:anchors="top left" style="opacity:1;fill:none" d="M 6 20 L 6 24" stroke="#000000"/> 		<path id="_4A489E55-FF5F-43B1-B65F-465F8A6C14AFframe17" oryx:anchors="top left" style="opacity:1;fill:none" d="M 20 20 L 20 24" stroke="#000000"/> 		<circle id="_4A489E55-FF5F-43B1-B65F-465F8A6C14AFframe18" oryx:anchors="top left" fill="black" cx="13.002" cy="5.916" r="5.417" stroke="#000000"/> 		<path id="_4A489E55-FF5F-43B1-B65F-465F8A6C14AFframe19" oryx:anchors="top left" style="opacity:1;fill:#F0EFF0;" stroke="#000000" d="M8.043,7.083c0,0,2.814-2.426,5.376-1.807s4.624-0.693,4.624-0.693    c0.25,1.688,0.042,3.75-1.458,5.584c0,0,1.083,0.75,1.083,1.5s0.125,1.875-1,3s-5.5,1.25-6.75,0S8.668,12.834,8.668,12    s0.583-1.25,1.25-1.917C8.835,9.5,7.419,7.708,8.043,7.083z"/> 	</g> 	 	<g id="_4A489E55-FF5F-43B1-B65F-465F8A6C14AFserviceTask" transform="scale(0.7,0.7) translate(8,8)" display="none"> 		<polygon oryx:anchors="top left" id="_4A489E55-FF5F-43B1-B65F-465F8A6C14AFframe20" style="opacity:1;fill:#ffffff" stroke="#000000" points="15.392,5.064 17.954,2.502 20.347,4.895 17.786,7.455     18.729,9.732 22.353,9.732 22.353,13.115 18.731,13.115 17.788,15.392 20.351,17.955 17.958,20.347 15.397,17.786 13.12,18.729     13.12,22.353 9.737,22.353 9.737,18.731 7.46,17.788 4.897,20.35 2.506,17.958 5.066,15.397 4.124,13.12 0.5,13.12 0.5,9.737     4.121,9.737 5.065,7.461 2.503,4.898 4.895,2.506 7.455,5.066 9.732,4.125 9.732,0.5 13.116,0.5 13.116,4.121 "/> 		<circle oryx:anchors="top left" id="_4A489E55-FF5F-43B1-B65F-465F8A6C14AFframe21" style="opacity:1;fill:none" stroke="#000000" cx="11.427" cy="11.426" r="3.714"/> 		<polygon oryx:anchors="top left" id="_4A489E55-FF5F-43B1-B65F-465F8A6C14AFframe22" style="opacity:1;fill:#ffffff" stroke="#000000" points="21.392,11.064 23.954,8.502 26.347,10.895 23.786,13.455     24.729,15.732 28.353,15.732 28.353,19.115 24.731,19.115 23.788,21.392 26.351,23.955 23.958,26.347 21.397,23.786 19.12,24.729     19.12,28.353 15.737,28.353 15.737,24.731 13.46,23.788 10.897,26.35 8.506,23.958 11.066,21.397 10.124,19.12 6.5,19.12     6.5,15.737 10.121,15.737 11.065,13.461 8.503,10.898 10.895,8.506 13.455,11.066 15.732,10.125 15.732,6.5 19.116,6.5     19.116,10.121 "/> 		<circle oryx:anchors="top left" id="_4A489E55-FF5F-43B1-B65F-465F8A6C14AFframe23" style="opacity:1;fill:none;" stroke="#000000" cx="17.427" cy="17.426" r="3.714"/> 	</g> 	 	<g id="_4A489E55-FF5F-43B1-B65F-465F8A6C14AFsendTask" display="none"> 		<path id="_4A489E55-FF5F-43B1-B65F-465F8A6C14AFstframe24" oryx:anchors="left top" stroke="#FFFFFF" fill="black" stroke-width="1" d="M8,11 L8,21 L24,21 L24,11 L16,17z"/> 		<path id="_4A489E55-FF5F-43B1-B65F-465F8A6C14AFstframe25" oryx:anchors="left top" stroke="#FFFFFF" fill="black" stroke-width="1" d="M7,10 L16,17 L25 10z"/> 	</g> 	 	<g id="_4A489E55-FF5F-43B1-B65F-465F8A6C14AFreceiveTask" display="none"> 		<path id="_4A489E55-FF5F-43B1-B65F-465F8A6C14AFframe26" oryx:anchors="left top" stroke="#000000" fill="none" stroke-width="1" d="M8,11 L8,21 L24,21 L24,11z M8,11 L16,17 L24,11"/> 	</g> 	 	<g id="_4A489E55-FF5F-43B1-B65F-465F8A6C14AFnone" display="none"/>  	<g id="_4A489E55-FF5F-43B1-B65F-465F8A6C14AFsequential" display="none">         <path oryx:anchors="bottom" fill="none" stroke="#000000" stroke-width="2" d="M46,76h10M46,72h10 M46,68h10" id="_4A489E55-FF5F-43B1-B65F-465F8A6C14AF__4A489E55-FF5F-43B1-B65F-465F8A6C14AF_20"/>     </g>   </g></g><g class="children" style="overflow:hidden"/><g class="edge"/></g><g class="controls"><g class="dockers"/><g class="magnets" transform="translate(195, 140)"><g pointer-events="all" display="none" transform="translate(-7, 12)"><circle cx="8" cy="8" r="4" stroke="none" fill="red" fill-opacity="0.3"/></g><g pointer-events="all" display="none" transform="translate(-7, 32)"><circle cx="8" cy="8" r="4" stroke="none" fill="red" fill-opacity="0.3"/></g><g pointer-events="all" display="none" transform="translate(-7, 52)"><circle cx="8" cy="8" r="4" stroke="none" fill="red" fill-opacity="0.3"/></g><g pointer-events="all" display="none" transform="translate(17, 71)"><circle cx="8" cy="8" r="4" stroke="none" fill="red" fill-opacity="0.3"/></g><g pointer-events="all" display="none" transform="translate(42, 71)"><circle cx="8" cy="8" r="4" stroke="none" fill="red" fill-opacity="0.3"/></g><g pointer-events="all" display="none" transform="translate(67, 71)"><circle cx="8" cy="8" r="4" stroke="none" fill="red" fill-opacity="0.3"/></g><g pointer-events="all" display="none" transform="translate(91, 12)"><circle cx="8" cy="8" r="4" stroke="none" fill="red" fill-opacity="0.3"/></g><g pointer-events="all" display="none" transform="translate(91, 32)"><circle cx="8" cy="8" r="4" stroke="none" fill="red" fill-opacity="0.3"/></g><g pointer-events="all" display="none" transform="translate(91, 52)"><circle cx="8" cy="8" r="4" stroke="none" fill="red" fill-opacity="0.3"/></g><g pointer-events="all" display="none" transform="translate(17, -7)"><circle cx="8" cy="8" r="4" stroke="none" fill="red" fill-opacity="0.3"/></g><g pointer-events="all" display="none" transform="translate(42, -7)"><circle cx="8" cy="8" r="4" stroke="none" fill="red" fill-opacity="0.3"/></g><g pointer-events="all" display="none" transform="translate(67, -7)"><circle cx="8" cy="8" r="4" stroke="none" fill="red" fill-opacity="0.3"/></g><g pointer-events="all" display="none" transform="translate(42, 32)"><circle cx="8" cy="8" r="4" stroke="none" fill="red" fill-opacity="0.3"/></g></g></g></g><g id="_F1706818-C0B0-40A2-9B8A-0704839125F8" bpmn2nodeid="_6FD2AA95-9F21-44AD-AD19-338EE8D16A1D"><g class="stencils" transform="translate(340, 140)"><g class="me"><g pointer-events="fill" oryx:minimumSize="50 40" id="_F1706818-C0B0-40A2-9B8A-0704839125F8">   	<defs id="_F1706818-C0B0-40A2-9B8A-0704839125F8__F1706818-C0B0-40A2-9B8A-0704839125F8_17"> 		<radialGradient id="_F1706818-C0B0-40A2-9B8A-0704839125F8background" cx="10%" cy="10%" r="100%" fx="10%" fy="10%"> 			<stop offset="0%" stop-color="#ffffff" stop-opacity="1" id="_F1706818-C0B0-40A2-9B8A-0704839125F8__F1706818-C0B0-40A2-9B8A-0704839125F8_18"/> 			<stop id="_F1706818-C0B0-40A2-9B8A-0704839125F8fill_el" offset="100%" stop-color="#fafad2" stop-opacity="1"/> 		</radialGradient> 		<radialGradient id="_F1706818-C0B0-40A2-9B8A-0704839125F8borderbackground" cx="10%" cy="10%" r="100%" fx="10%" fy="10%"> 			<stop offset="0%" stop-color="#ffffff" stop-opacity="1" id="_F1706818-C0B0-40A2-9B8A-0704839125F8__F1706818-C0B0-40A2-9B8A-0704839125F8_19"/> 			<stop id="_F1706818-C0B0-40A2-9B8A-0704839125F8fill_border" offset="100%" stop-color="#000000" stop-opacity="1" stroke="#000000"/> 		</radialGradient> 	</defs> 	 	<rect id="_F1706818-C0B0-40A2-9B8A-0704839125F8text_frame" oryx:anchors="bottom top right left" x="1" y="1" width="94" height="79" rx="10" ry="10" stroke="none" stroke-width="0" fill="none"/> 	<rect id="_F1706818-C0B0-40A2-9B8A-0704839125F8bg_frame" oryx:resize="vertical horizontal" x="0" y="0" width="100" height="80" rx="10" ry="10" stroke="#000000" stroke-width="1" fill="url(#_F1706818-C0B0-40A2-9B8A-0704839125F8background) #ffffcc"/> 		<text font-size="12" id="_F1706818-C0B0-40A2-9B8A-0704839125F8text_name" x="50" y="40" oryx:align="middle center" oryx:fittoelem="text_frame" stroke="black" text-anchor="middle" stroke-width="0pt" letter-spacing="-0.01px" fill="#000000" transform="rotate(0 50 40)" visibility="inherit" oryx:fontSize="12"><tspan x="50" y="40" dy="5" id="ext-gen2097">Hoa Meeting</tspan></text>     <g id="_F1706818-C0B0-40A2-9B8A-0704839125F8manualTask" transform="scale(0.7,0.7) translate(8,8)" display="none">     	<path oryx:anchors="top left" id="_F1706818-C0B0-40A2-9B8A-0704839125F8frame" style="opacity:1;fill:none;fill-opacity:1;stroke-width:1" d="M0.5,3.751l4.083-3.25c0,0,11.166,0.083,12.083,0.083s-2.417,2.917-1.5,2.917     s11.667,0,12.584,0c1.166,1.708-0.168,3.167-0.834,3.667s0.875,1.917-1,4.417c-0.75,0.25,0.75,1.875-1.333,3.333     c-1.167,0.583,0.583,1.542-1.25,2.833c-1.167,0-20.833,0.083-20.833,0.083l-2-1.333V3.751z" stroke="#000000"/> 		<path id="_F1706818-C0B0-40A2-9B8A-0704839125F8frame2" oryx:anchors="top left" style="opacity:1;fill:none;stroke-width:2" d="M 13.5 7 L 27 7" stroke="#000000"/> 		<path id="_F1706818-C0B0-40A2-9B8A-0704839125F8frame3" oryx:anchors="top left" style="opacity:1;fill:none;stroke-width:2" d="M 13.5 11 L 26 11" stroke="#000000"/> 		<path id="_F1706818-C0B0-40A2-9B8A-0704839125F8frame4" oryx:anchors="top left" style="opacity:1;fill:none;stroke-width:1.5" d="M 14 14.5 L 25 14.5" stroke="#000000"/> 		<path id="_F1706818-C0B0-40A2-9B8A-0704839125F8frame5" oryx:anchors="top left" style="opacity:1;fill:none;stroke-width:1.5" d="M 8.2 3.1 L 15 3.1" stroke="#000000"/> 	</g> 	 	<g id="_F1706818-C0B0-40A2-9B8A-0704839125F8businessRuleTask" transform="scale(0.7,0.7) translate(8,8)" display="none"> 		<rect id="_F1706818-C0B0-40A2-9B8A-0704839125F8frame6" oryx:anchors="top left" x="0" y="0" width="22" height="4" style="opacity:1;fill:#B3B1B3;fill-opacity:1;" stroke="#000000"/> 		<rect id="_F1706818-C0B0-40A2-9B8A-0704839125F8frame7" oryx:anchors="top left" x="0" y="4" style="opacity:1;fill:none;" width="22" height="12" stroke="#000000"/> 		<path id="_F1706818-C0B0-40A2-9B8A-0704839125F8frame8" oryx:anchors="top left" style="opacity:1;fill:none;" d="M 0 10 L 22 10" stroke="#000000"/> 		<path id="_F1706818-C0B0-40A2-9B8A-0704839125F8frame9" oryx:anchors="top left" style="opacity:1; fill:none;" d="M 7 4 L 7 16" stroke="#000000"/> 	</g> 	 	<g id="_F1706818-C0B0-40A2-9B8A-0704839125F8scriptTask" transform="scale(0.7,0.7) translate(8,8)" display="none"> 		<path oryx:anchors="top left" id="_F1706818-C0B0-40A2-9B8A-0704839125F8frame10" style="opacity:1;fill:none;" stroke="#000000" d="M6.402,0.5h14.5c0,0-5.833,2.833-5.833,5.583s4.417,6,4.417,9.167    s-4.167,5.083-4.167,5.083H0.235c0,0,5-2.667,5-5s-4.583-6.75-4.583-9.25S6.402,0.5,6.402,0.5z"/> 		<path oryx:anchors="top left" id="_F1706818-C0B0-40A2-9B8A-0704839125F8frame11" style="opacity:1;fill:none;stroke-width:1.5" d="M 3.5 4.5 L 13.5 4.5" stroke="#000000"/> 		<path oryx:anchors="top left" id="_F1706818-C0B0-40A2-9B8A-0704839125F8frame12" style="opacity:1;fill:none;stroke-width:1.5" d="M 3.8 8.5 L 13.8 8.5" stroke="#000000"/> 		<path oryx:anchors="top left" id="_F1706818-C0B0-40A2-9B8A-0704839125F8frame13" style="opacity:1;fill:none;stroke-width:1.5" d="M 6.3 12.5 L 16.3 12.5" stroke="#000000"/> 		<path oryx:anchors="top left" id="_F1706818-C0B0-40A2-9B8A-0704839125F8frame14" style="opacity:1;fill:none;stroke-width:1.5" d="M 6.5 16.5 L 16.5 16.5" stroke="#000000"/> 	</g> 	 	<g id="_F1706818-C0B0-40A2-9B8A-0704839125F8userTask" transform="scale(0.7,0.7) translate(8,8)" display="inherit"> 		<path id="_F1706818-C0B0-40A2-9B8A-0704839125F8frame15" oryx:anchors="top left" style="opacity:1;fill:#F4F6F7" stroke="#000000" d="M0.585,24.167h24.083v-7.833c0,0-2.333-3.917-7.083-5.167h-9.25    c-4.417,1.333-7.833,5.75-7.833,5.75L0.585,24.167z"/> 		<path id="_F1706818-C0B0-40A2-9B8A-0704839125F8frame16" oryx:anchors="top left" style="opacity:1;fill:none" d="M 6 20 L 6 24" stroke="#000000"/> 		<path id="_F1706818-C0B0-40A2-9B8A-0704839125F8frame17" oryx:anchors="top left" style="opacity:1;fill:none" d="M 20 20 L 20 24" stroke="#000000"/> 		<circle id="_F1706818-C0B0-40A2-9B8A-0704839125F8frame18" oryx:anchors="top left" fill="black" cx="13.002" cy="5.916" r="5.417" stroke="#000000"/> 		<path id="_F1706818-C0B0-40A2-9B8A-0704839125F8frame19" oryx:anchors="top left" style="opacity:1;fill:#F0EFF0;" stroke="#000000" d="M8.043,7.083c0,0,2.814-2.426,5.376-1.807s4.624-0.693,4.624-0.693    c0.25,1.688,0.042,3.75-1.458,5.584c0,0,1.083,0.75,1.083,1.5s0.125,1.875-1,3s-5.5,1.25-6.75,0S8.668,12.834,8.668,12    s0.583-1.25,1.25-1.917C8.835,9.5,7.419,7.708,8.043,7.083z"/> 	</g> 	 	<g id="_F1706818-C0B0-40A2-9B8A-0704839125F8serviceTask" transform="scale(0.7,0.7) translate(8,8)" display="none"> 		<polygon oryx:anchors="top left" id="_F1706818-C0B0-40A2-9B8A-0704839125F8frame20" style="opacity:1;fill:#ffffff" stroke="#000000" points="15.392,5.064 17.954,2.502 20.347,4.895 17.786,7.455     18.729,9.732 22.353,9.732 22.353,13.115 18.731,13.115 17.788,15.392 20.351,17.955 17.958,20.347 15.397,17.786 13.12,18.729     13.12,22.353 9.737,22.353 9.737,18.731 7.46,17.788 4.897,20.35 2.506,17.958 5.066,15.397 4.124,13.12 0.5,13.12 0.5,9.737     4.121,9.737 5.065,7.461 2.503,4.898 4.895,2.506 7.455,5.066 9.732,4.125 9.732,0.5 13.116,0.5 13.116,4.121 "/> 		<circle oryx:anchors="top left" id="_F1706818-C0B0-40A2-9B8A-0704839125F8frame21" style="opacity:1;fill:none" stroke="#000000" cx="11.427" cy="11.426" r="3.714"/> 		<polygon oryx:anchors="top left" id="_F1706818-C0B0-40A2-9B8A-0704839125F8frame22" style="opacity:1;fill:#ffffff" stroke="#000000" points="21.392,11.064 23.954,8.502 26.347,10.895 23.786,13.455     24.729,15.732 28.353,15.732 28.353,19.115 24.731,19.115 23.788,21.392 26.351,23.955 23.958,26.347 21.397,23.786 19.12,24.729     19.12,28.353 15.737,28.353 15.737,24.731 13.46,23.788 10.897,26.35 8.506,23.958 11.066,21.397 10.124,19.12 6.5,19.12     6.5,15.737 10.121,15.737 11.065,13.461 8.503,10.898 10.895,8.506 13.455,11.066 15.732,10.125 15.732,6.5 19.116,6.5     19.116,10.121 "/> 		<circle oryx:anchors="top left" id="_F1706818-C0B0-40A2-9B8A-0704839125F8frame23" style="opacity:1;fill:none;" stroke="#000000" cx="17.427" cy="17.426" r="3.714"/> 	</g> 	 	<g id="_F1706818-C0B0-40A2-9B8A-0704839125F8sendTask" display="none"> 		<path id="_F1706818-C0B0-40A2-9B8A-0704839125F8stframe24" oryx:anchors="left top" stroke="#FFFFFF" fill="black" stroke-width="1" d="M8,11 L8,21 L24,21 L24,11 L16,17z"/> 		<path id="_F1706818-C0B0-40A2-9B8A-0704839125F8stframe25" oryx:anchors="left top" stroke="#FFFFFF" fill="black" stroke-width="1" d="M7,10 L16,17 L25 10z"/> 	</g> 	 	<g id="_F1706818-C0B0-40A2-9B8A-0704839125F8receiveTask" display="none"> 		<path id="_F1706818-C0B0-40A2-9B8A-0704839125F8frame26" oryx:anchors="left top" stroke="#000000" fill="none" stroke-width="1" d="M8,11 L8,21 L24,21 L24,11z M8,11 L16,17 L24,11"/> 	</g> 	 	<g id="_F1706818-C0B0-40A2-9B8A-0704839125F8none" display="none"/>  	<g id="_F1706818-C0B0-40A2-9B8A-0704839125F8sequential" display="none">         <path oryx:anchors="bottom" fill="none" stroke="#000000" stroke-width="2" d="M46,76h10M46,72h10 M46,68h10" id="_F1706818-C0B0-40A2-9B8A-0704839125F8__F1706818-C0B0-40A2-9B8A-0704839125F8_20"/>     </g>   </g></g><g class="children" style="overflow:hidden"/><g class="edge"/></g><g class="controls"><g class="dockers"/><g class="magnets" transform="translate(340, 140)"><g pointer-events="all" display="none" transform="translate(-7, 12)"><circle cx="8" cy="8" r="4" stroke="none" fill="red" fill-opacity="0.3"/></g><g pointer-events="all" display="none" transform="translate(-7, 32)"><circle cx="8" cy="8" r="4" stroke="none" fill="red" fill-opacity="0.3"/></g><g pointer-events="all" display="none" transform="translate(-7, 52)"><circle cx="8" cy="8" r="4" stroke="none" fill="red" fill-opacity="0.3"/></g><g pointer-events="all" display="none" transform="translate(17, 71)"><circle cx="8" cy="8" r="4" stroke="none" fill="red" fill-opacity="0.3"/></g><g pointer-events="all" display="none" transform="translate(42, 71)"><circle cx="8" cy="8" r="4" stroke="none" fill="red" fill-opacity="0.3"/></g><g pointer-events="all" display="none" transform="translate(67, 71)"><circle cx="8" cy="8" r="4" stroke="none" fill="red" fill-opacity="0.3"/></g><g pointer-events="all" display="none" transform="translate(91, 12)"><circle cx="8" cy="8" r="4" stroke="none" fill="red" fill-opacity="0.3"/></g><g pointer-events="all" display="none" transform="translate(91, 32)"><circle cx="8" cy="8" r="4" stroke="none" fill="red" fill-opacity="0.3"/></g><g pointer-events="all" display="none" transform="translate(91, 52)"><circle cx="8" cy="8" r="4" stroke="none" fill="red" fill-opacity="0.3"/></g><g pointer-events="all" display="none" transform="translate(17, -7)"><circle cx="8" cy="8" r="4" stroke="none" fill="red" fill-opacity="0.3"/></g><g pointer-events="all" display="none" transform="translate(42, -7)"><circle cx="8" cy="8" r="4" stroke="none" fill="red" fill-opacity="0.3"/></g><g pointer-events="all" display="none" transform="translate(67, -7)"><circle cx="8" cy="8" r="4" stroke="none" fill="red" fill-opacity="0.3"/></g><g pointer-events="all" display="none" transform="translate(42, 32)"><circle cx="8" cy="8" r="4" stroke="none" fill="red" fill-opacity="0.3"/></g></g></g></g><g id="_CFB08F6C-5466-4945-94E7-59BD1B9CAFA1" bpmn2nodeid="_EC8A926A-659C-4DDF-8F5E-364191E3AB55"><g class="stencils" transform="translate(485, 140)"><g class="me"><g pointer-events="fill" oryx:minimumSize="50 40" id="_CFB08F6C-5466-4945-94E7-59BD1B9CAFA1">   	<defs id="_CFB08F6C-5466-4945-94E7-59BD1B9CAFA1__CFB08F6C-5466-4945-94E7-59BD1B9CAFA1_17"> 		<radialGradient id="_CFB08F6C-5466-4945-94E7-59BD1B9CAFA1background" cx="10%" cy="10%" r="100%" fx="10%" fy="10%"> 			<stop offset="0%" stop-color="#ffffff" stop-opacity="1" id="_CFB08F6C-5466-4945-94E7-59BD1B9CAFA1__CFB08F6C-5466-4945-94E7-59BD1B9CAFA1_18"/> 			<stop id="_CFB08F6C-5466-4945-94E7-59BD1B9CAFA1fill_el" offset="100%" stop-color="#fafad2" stop-opacity="1"/> 		</radialGradient> 		<radialGradient id="_CFB08F6C-5466-4945-94E7-59BD1B9CAFA1borderbackground" cx="10%" cy="10%" r="100%" fx="10%" fy="10%"> 			<stop offset="0%" stop-color="#ffffff" stop-opacity="1" id="_CFB08F6C-5466-4945-94E7-59BD1B9CAFA1__CFB08F6C-5466-4945-94E7-59BD1B9CAFA1_19"/> 			<stop id="_CFB08F6C-5466-4945-94E7-59BD1B9CAFA1fill_border" offset="100%" stop-color="#000000" stop-opacity="1" stroke="#000000"/> 		</radialGradient> 	</defs> 	 	<rect id="_CFB08F6C-5466-4945-94E7-59BD1B9CAFA1text_frame" oryx:anchors="bottom top right left" x="1" y="1" width="94" height="79" rx="10" ry="10" stroke="none" stroke-width="0" fill="none"/> 	<rect id="_CFB08F6C-5466-4945-94E7-59BD1B9CAFA1bg_frame" oryx:resize="vertical horizontal" x="0" y="0" width="100" height="80" rx="10" ry="10" stroke="#000000" stroke-width="1" fill="url(#_CFB08F6C-5466-4945-94E7-59BD1B9CAFA1background) #ffffcc"/> 		<text font-size="12" id="_CFB08F6C-5466-4945-94E7-59BD1B9CAFA1text_name" x="50" y="40" oryx:align="middle center" oryx:fittoelem="text_frame" stroke="black" text-anchor="middle" stroke-width="0pt" letter-spacing="-0.01px" fill="#000000" transform="rotate(0 50 40)" visibility="inherit" oryx:fontSize="12"><tspan x="50" y="40" dy="5" id="ext-gen1892">Hoa Approved</tspan></text>     <g id="_CFB08F6C-5466-4945-94E7-59BD1B9CAFA1manualTask" transform="scale(0.7,0.7) translate(8,8)" display="none">     	<path oryx:anchors="top left" id="_CFB08F6C-5466-4945-94E7-59BD1B9CAFA1frame" style="opacity:1;fill:none;fill-opacity:1;stroke-width:1" d="M0.5,3.751l4.083-3.25c0,0,11.166,0.083,12.083,0.083s-2.417,2.917-1.5,2.917     s11.667,0,12.584,0c1.166,1.708-0.168,3.167-0.834,3.667s0.875,1.917-1,4.417c-0.75,0.25,0.75,1.875-1.333,3.333     c-1.167,0.583,0.583,1.542-1.25,2.833c-1.167,0-20.833,0.083-20.833,0.083l-2-1.333V3.751z" stroke="#000000"/> 		<path id="_CFB08F6C-5466-4945-94E7-59BD1B9CAFA1frame2" oryx:anchors="top left" style="opacity:1;fill:none;stroke-width:2" d="M 13.5 7 L 27 7" stroke="#000000"/> 		<path id="_CFB08F6C-5466-4945-94E7-59BD1B9CAFA1frame3" oryx:anchors="top left" style="opacity:1;fill:none;stroke-width:2" d="M 13.5 11 L 26 11" stroke="#000000"/> 		<path id="_CFB08F6C-5466-4945-94E7-59BD1B9CAFA1frame4" oryx:anchors="top left" style="opacity:1;fill:none;stroke-width:1.5" d="M 14 14.5 L 25 14.5" stroke="#000000"/> 		<path id="_CFB08F6C-5466-4945-94E7-59BD1B9CAFA1frame5" oryx:anchors="top left" style="opacity:1;fill:none;stroke-width:1.5" d="M 8.2 3.1 L 15 3.1" stroke="#000000"/> 	</g> 	 	<g id="_CFB08F6C-5466-4945-94E7-59BD1B9CAFA1businessRuleTask" transform="scale(0.7,0.7) translate(8,8)" display="none"> 		<rect id="_CFB08F6C-5466-4945-94E7-59BD1B9CAFA1frame6" oryx:anchors="top left" x="0" y="0" width="22" height="4" style="opacity:1;fill:#B3B1B3;fill-opacity:1;" stroke="#000000"/> 		<rect id="_CFB08F6C-5466-4945-94E7-59BD1B9CAFA1frame7" oryx:anchors="top left" x="0" y="4" style="opacity:1;fill:none;" width="22" height="12" stroke="#000000"/> 		<path id="_CFB08F6C-5466-4945-94E7-59BD1B9CAFA1frame8" oryx:anchors="top left" style="opacity:1;fill:none;" d="M 0 10 L 22 10" stroke="#000000"/> 		<path id="_CFB08F6C-5466-4945-94E7-59BD1B9CAFA1frame9" oryx:anchors="top left" style="opacity:1; fill:none;" d="M 7 4 L 7 16" stroke="#000000"/> 	</g> 	 	<g id="_CFB08F6C-5466-4945-94E7-59BD1B9CAFA1scriptTask" transform="scale(0.7,0.7) translate(8,8)" display="inherit"> 		<path oryx:anchors="top left" id="_CFB08F6C-5466-4945-94E7-59BD1B9CAFA1frame10" style="opacity:1;fill:none;" stroke="#000000" d="M6.402,0.5h14.5c0,0-5.833,2.833-5.833,5.583s4.417,6,4.417,9.167    s-4.167,5.083-4.167,5.083H0.235c0,0,5-2.667,5-5s-4.583-6.75-4.583-9.25S6.402,0.5,6.402,0.5z"/> 		<path oryx:anchors="top left" id="_CFB08F6C-5466-4945-94E7-59BD1B9CAFA1frame11" style="opacity:1;fill:none;stroke-width:1.5" d="M 3.5 4.5 L 13.5 4.5" stroke="#000000"/> 		<path oryx:anchors="top left" id="_CFB08F6C-5466-4945-94E7-59BD1B9CAFA1frame12" style="opacity:1;fill:none;stroke-width:1.5" d="M 3.8 8.5 L 13.8 8.5" stroke="#000000"/> 		<path oryx:anchors="top left" id="_CFB08F6C-5466-4945-94E7-59BD1B9CAFA1frame13" style="opacity:1;fill:none;stroke-width:1.5" d="M 6.3 12.5 L 16.3 12.5" stroke="#000000"/> 		<path oryx:anchors="top left" id="_CFB08F6C-5466-4945-94E7-59BD1B9CAFA1frame14" style="opacity:1;fill:none;stroke-width:1.5" d="M 6.5 16.5 L 16.5 16.5" stroke="#000000"/> 	</g> 	 	<g id="_CFB08F6C-5466-4945-94E7-59BD1B9CAFA1userTask" transform="scale(0.7,0.7) translate(8,8)" display="none"> 		<path id="_CFB08F6C-5466-4945-94E7-59BD1B9CAFA1frame15" oryx:anchors="top left" style="opacity:1;fill:#F4F6F7" stroke="#000000" d="M0.585,24.167h24.083v-7.833c0,0-2.333-3.917-7.083-5.167h-9.25    c-4.417,1.333-7.833,5.75-7.833,5.75L0.585,24.167z"/> 		<path id="_CFB08F6C-5466-4945-94E7-59BD1B9CAFA1frame16" oryx:anchors="top left" style="opacity:1;fill:none" d="M 6 20 L 6 24" stroke="#000000"/> 		<path id="_CFB08F6C-5466-4945-94E7-59BD1B9CAFA1frame17" oryx:anchors="top left" style="opacity:1;fill:none" d="M 20 20 L 20 24" stroke="#000000"/> 		<circle id="_CFB08F6C-5466-4945-94E7-59BD1B9CAFA1frame18" oryx:anchors="top left" fill="black" cx="13.002" cy="5.916" r="5.417" stroke="#000000"/> 		<path id="_CFB08F6C-5466-4945-94E7-59BD1B9CAFA1frame19" oryx:anchors="top left" style="opacity:1;fill:#F0EFF0;" stroke="#000000" d="M8.043,7.083c0,0,2.814-2.426,5.376-1.807s4.624-0.693,4.624-0.693    c0.25,1.688,0.042,3.75-1.458,5.584c0,0,1.083,0.75,1.083,1.5s0.125,1.875-1,3s-5.5,1.25-6.75,0S8.668,12.834,8.668,12    s0.583-1.25,1.25-1.917C8.835,9.5,7.419,7.708,8.043,7.083z"/> 	</g> 	 	<g id="_CFB08F6C-5466-4945-94E7-59BD1B9CAFA1serviceTask" transform="scale(0.7,0.7) translate(8,8)" display="none"> 		<polygon oryx:anchors="top left" id="_CFB08F6C-5466-4945-94E7-59BD1B9CAFA1frame20" style="opacity:1;fill:#ffffff" stroke="#000000" points="15.392,5.064 17.954,2.502 20.347,4.895 17.786,7.455     18.729,9.732 22.353,9.732 22.353,13.115 18.731,13.115 17.788,15.392 20.351,17.955 17.958,20.347 15.397,17.786 13.12,18.729     13.12,22.353 9.737,22.353 9.737,18.731 7.46,17.788 4.897,20.35 2.506,17.958 5.066,15.397 4.124,13.12 0.5,13.12 0.5,9.737     4.121,9.737 5.065,7.461 2.503,4.898 4.895,2.506 7.455,5.066 9.732,4.125 9.732,0.5 13.116,0.5 13.116,4.121 "/> 		<circle oryx:anchors="top left" id="_CFB08F6C-5466-4945-94E7-59BD1B9CAFA1frame21" style="opacity:1;fill:none" stroke="#000000" cx="11.427" cy="11.426" r="3.714"/> 		<polygon oryx:anchors="top left" id="_CFB08F6C-5466-4945-94E7-59BD1B9CAFA1frame22" style="opacity:1;fill:#ffffff" stroke="#000000" points="21.392,11.064 23.954,8.502 26.347,10.895 23.786,13.455     24.729,15.732 28.353,15.732 28.353,19.115 24.731,19.115 23.788,21.392 26.351,23.955 23.958,26.347 21.397,23.786 19.12,24.729     19.12,28.353 15.737,28.353 15.737,24.731 13.46,23.788 10.897,26.35 8.506,23.958 11.066,21.397 10.124,19.12 6.5,19.12     6.5,15.737 10.121,15.737 11.065,13.461 8.503,10.898 10.895,8.506 13.455,11.066 15.732,10.125 15.732,6.5 19.116,6.5     19.116,10.121 "/> 		<circle oryx:anchors="top left" id="_CFB08F6C-5466-4945-94E7-59BD1B9CAFA1frame23" style="opacity:1;fill:none;" stroke="#000000" cx="17.427" cy="17.426" r="3.714"/> 	</g> 	 	<g id="_CFB08F6C-5466-4945-94E7-59BD1B9CAFA1sendTask" display="none"> 		<path id="_CFB08F6C-5466-4945-94E7-59BD1B9CAFA1stframe24" oryx:anchors="left top" stroke="#FFFFFF" fill="black" stroke-width="1" d="M8,11 L8,21 L24,21 L24,11 L16,17z"/> 		<path id="_CFB08F6C-5466-4945-94E7-59BD1B9CAFA1stframe25" oryx:anchors="left top" stroke="#FFFFFF" fill="black" stroke-width="1" d="M7,10 L16,17 L25 10z"/> 	</g> 	 	<g id="_CFB08F6C-5466-4945-94E7-59BD1B9CAFA1receiveTask" display="none"> 		<path id="_CFB08F6C-5466-4945-94E7-59BD1B9CAFA1frame26" oryx:anchors="left top" stroke="#000000" fill="none" stroke-width="1" d="M8,11 L8,21 L24,21 L24,11z M8,11 L16,17 L24,11"/> 	</g> 	 	<g id="_CFB08F6C-5466-4945-94E7-59BD1B9CAFA1none" display="none"/>  	<g id="_CFB08F6C-5466-4945-94E7-59BD1B9CAFA1sequential" display="none">         <path oryx:anchors="bottom" fill="none" stroke="#000000" stroke-width="2" d="M46,76h10M46,72h10 M46,68h10" id="_CFB08F6C-5466-4945-94E7-59BD1B9CAFA1__CFB08F6C-5466-4945-94E7-59BD1B9CAFA1_20"/>     </g>   </g></g><g class="children" style="overflow:hidden"/><g class="edge"/></g><g class="controls"><g class="dockers"/><g class="magnets" transform="translate(485, 140)"><g pointer-events="all" display="none" transform="translate(-7, 12)"><circle cx="8" cy="8" r="4" stroke="none" fill="red" fill-opacity="0.3"/></g><g pointer-events="all" display="none" transform="translate(-7, 32)"><circle cx="8" cy="8" r="4" stroke="none" fill="red" fill-opacity="0.3"/></g><g pointer-events="all" display="none" transform="translate(-7, 52)"><circle cx="8" cy="8" r="4" stroke="none" fill="red" fill-opacity="0.3"/></g><g pointer-events="all" display="none" transform="translate(17, 71)"><circle cx="8" cy="8" r="4" stroke="none" fill="red" fill-opacity="0.3"/></g><g pointer-events="all" display="none" transform="translate(42, 71)"><circle cx="8" cy="8" r="4" stroke="none" fill="red" fill-opacity="0.3"/></g><g pointer-events="all" display="none" transform="translate(67, 71)"><circle cx="8" cy="8" r="4" stroke="none" fill="red" fill-opacity="0.3"/></g><g pointer-events="all" display="none" transform="translate(91, 12)"><circle cx="8" cy="8" r="4" stroke="none" fill="red" fill-opacity="0.3"/></g><g pointer-events="all" display="none" transform="translate(91, 32)"><circle cx="8" cy="8" r="4" stroke="none" fill="red" fill-opacity="0.3"/></g><g pointer-events="all" display="none" transform="translate(91, 52)"><circle cx="8" cy="8" r="4" stroke="none" fill="red" fill-opacity="0.3"/></g><g pointer-events="all" display="none" transform="translate(17, -7)"><circle cx="8" cy="8" r="4" stroke="none" fill="red" fill-opacity="0.3"/></g><g pointer-events="all" display="none" transform="translate(42, -7)"><circle cx="8" cy="8" r="4" stroke="none" fill="red" fill-opacity="0.3"/></g><g pointer-events="all" display="none" transform="translate(67, -7)"><circle cx="8" cy="8" r="4" stroke="none" fill="red" fill-opacity="0.3"/></g><g pointer-events="all" display="none" transform="translate(42, 32)"><circle cx="8" cy="8" r="4" stroke="none" fill="red" fill-opacity="0.3"/></g></g></g></g><g id="_06F9018E-4352-41EA-B09E-3BE1B7BA13B2" bpmn2nodeid="_D1B5ED65-6CAA-4BF3-B037-9D35A577FD11"><g class="stencils" transform="translate(630, 166)"><g class="me"><g pointer-events="fill" id="_06F9018E-4352-41EA-B09E-3BE1B7BA13B2">      <defs id="_06F9018E-4352-41EA-B09E-3BE1B7BA13B2__06F9018E-4352-41EA-B09E-3BE1B7BA13B2_5"> 		<radialGradient id="_06F9018E-4352-41EA-B09E-3BE1B7BA13B2background" cx="10%" cy="10%" r="100%" fx="10%" fy="10%"> 			<stop offset="0%" stop-color="#ffffff" stop-opacity="1" id="_06F9018E-4352-41EA-B09E-3BE1B7BA13B2__06F9018E-4352-41EA-B09E-3BE1B7BA13B2_6"/> 			<stop id="_06F9018E-4352-41EA-B09E-3BE1B7BA13B2fill_el" offset="100%" stop-color="#ff6347" stop-opacity="1"/> 		</radialGradient> 	</defs> 	     <circle id="_06F9018E-4352-41EA-B09E-3BE1B7BA13B2bg_frame" cx="14" cy="14" r="14" stroke="#000000" fill="url(#_06F9018E-4352-41EA-B09E-3BE1B7BA13B2background) white" stroke-width="3"/> 	<text font-size="11" id="_06F9018E-4352-41EA-B09E-3BE1B7BA13B2text_name" x="14" y="30" oryx:align="top center" stroke="black" stroke-width="0pt" letter-spacing="-0.01px" fill="#000000" text-anchor="middle" transform="rotate(0 14 30)" visibility="inherit" oryx:fontSize="11"/>   </g></g><g class="children" style="overflow:hidden"/><g class="edge"/></g><g class="controls"><g class="dockers"/><g class="magnets" transform="translate(630, 166)"><g pointer-events="all" display="none" transform="translate(6, 6)"><circle cx="8" cy="8" r="4" stroke="none" fill="red" fill-opacity="0.3"/></g></g></g></g></g><g class="edge"><g id="_5251EDE2-9A58-4615-B3CC-93794CFEC6AB" bpmn2nodeid="_79DF17BE-A1F9-43CF-B3BC-799CBE6A934D"><g class="stencils"><g class="me"><g pointer-events="painted" bpmn2nodeid="_79DF17BE-A1F9-43CF-B3BC-799CBE6A934D"><path id="_5251EDE2-9A58-4615-B3CC-93794CFEC6AB_1" d="M150.609375 180L194.15625 180 " stroke="#000000" fill="none" stroke-width="2" stroke-linecap="round" stroke-linejoin="round" marker-start="url(#_5251EDE2-9A58-4615-B3CC-93794CFEC6ABstart)" marker-end="url(#_5251EDE2-9A58-4615-B3CC-93794CFEC6ABend)"/></g><text id="_5251EDE2-9A58-4615-B3CC-93794CFEC6ABtext_name" font-size="12" x="164.609375" y="166" oryx:edgePosition="startTop" stroke-width="0pt" letter-spacing="-0.01px" fill="#000000" text-anchor="start" transform="rotate(360 150.609375 180)" visibility="inherit" oryx:fontSize="12"/></g><g class="children" style="overflow:hidden"/><g class="edge"/></g><g class="controls"><g class="dockers"/><g class="magnets"/></g></g><g id="_6C2CBF08-EB8F-422D-9A3D-04DA233C19FA" bpmn2nodeid="_D9AC6716-1A0C-40BA-AC72-051446BAB6F5"><g class="stencils"><g class="me"><g pointer-events="painted" bpmn2nodeid="_D9AC6716-1A0C-40BA-AC72-051446BAB6F5"><path id="_6C2CBF08-EB8F-422D-9A3D-04DA233C19FA_1" d="M295.84375 180L339.15625 180 " stroke="#000000" fill="none" stroke-width="2" stroke-linecap="round" stroke-linejoin="round" marker-start="url(#_6C2CBF08-EB8F-422D-9A3D-04DA233C19FAstart)" marker-end="url(#_6C2CBF08-EB8F-422D-9A3D-04DA233C19FAend)"/></g><text id="_6C2CBF08-EB8F-422D-9A3D-04DA233C19FAtext_name" font-size="12" x="309.84375" y="166" oryx:edgePosition="startTop" stroke-width="0pt" letter-spacing="-0.01px" fill="#000000" text-anchor="start" transform="rotate(360 295.84375 180)" visibility="inherit" oryx:fontSize="12"/></g><g class="children" style="overflow:hidden"/><g class="edge"/></g><g class="controls"><g class="dockers"/><g class="magnets"/></g></g><g id="_06E51988-021B-4C39-AAD1-E9B4E5380334" bpmn2nodeid="_82688331-1172-48CF-90F0-1710564FA95D"><g class="stencils"><g class="me"><g pointer-events="painted" bpmn2nodeid="_82688331-1172-48CF-90F0-1710564FA95D"><path id="_06E51988-021B-4C39-AAD1-E9B4E5380334_1" d="M440.84375 180L484.15625 180 " stroke="#000000" fill="none" stroke-width="2" stroke-linecap="round" stroke-linejoin="round" marker-start="url(#_06E51988-021B-4C39-AAD1-E9B4E5380334start)" marker-end="url(#_06E51988-021B-4C39-AAD1-E9B4E5380334end)"/></g><text id="_06E51988-021B-4C39-AAD1-E9B4E5380334text_name" font-size="12" x="454.84375" y="166" oryx:edgePosition="startTop" stroke-width="0pt" letter-spacing="-0.01px" fill="#000000" text-anchor="start" transform="rotate(360 440.84375 180)" visibility="inherit" oryx:fontSize="12"/></g><g class="children" style="overflow:hidden"/><g class="edge"/></g><g class="controls"><g class="dockers"/><g class="magnets"/></g></g><g id="_9BF2F472-C882-4EA7-B26B-8C8BB3648FDA" bpmn2nodeid="_F9039DED-E6CC-4A48-890E-6BAFD910773D"><g class="stencils"><g class="me"><g pointer-events="painted" bpmn2nodeid="_F9039DED-E6CC-4A48-890E-6BAFD910773D"><path id="_9BF2F472-C882-4EA7-B26B-8C8BB3648FDA_1" d="M585.390625 180L629.375 180 " stroke="#000000" fill="none" stroke-width="2" stroke-linecap="round" stroke-linejoin="round" marker-start="url(#_9BF2F472-C882-4EA7-B26B-8C8BB3648FDAstart)" marker-end="url(#_9BF2F472-C882-4EA7-B26B-8C8BB3648FDAend)"/></g><text id="_9BF2F472-C882-4EA7-B26B-8C8BB3648FDAtext_name" font-size="12" x="599.390625" y="166" oryx:edgePosition="startTop" stroke-width="0pt" letter-spacing="-0.01px" fill="#000000" text-anchor="start" transform="rotate(360 585.390625 180)" visibility="inherit" oryx:fontSize="12"/></g><g class="children" style="overflow:hidden"/><g class="edge"/></g><g class="controls"><g class="dockers"/><g class="magnets"/></g></g></g><text id="_576C2BDA-E9DC-4901-A221-55A268FBFC97" style="stroke-width:1;fill:rgb(177,194,214);font-family:arial;font-weight:bold" font-size="12" onclick="ORYX.Plugins.CanvasTitle.openTextualAnalysis()" onmouseover="ORYX.Plugins.CanvasTitle.addToolTip('_576C2BDA-E9DC-4901-A221-55A268FBFC97')" transform="translate(10, 20)">NewOrder v.1.0 (new-order-permitting-kjar.NewOrder)</text></g></g></svg>